<svg width="577" height="433" viewBox="0 0 577 433" fill="none" xmlns="http://www.w3.org/2000/svg">
<path d="M179.303 352.727C212.336 352.727 245.369 352.727 278.402 352.727C311.328 352.727 344.253 352.727 377.142 352.727C395.75 352.727 414.394 352.727 433.002 352.727C433.688 352.727 433.688 351.646 433.002 351.646C399.969 351.646 366.936 351.646 333.903 351.646C300.978 351.646 268.053 351.646 235.164 351.646C216.555 351.646 197.911 351.646 179.303 351.646C178.618 351.646 178.618 352.727 179.303 352.727Z" fill="#919B9B"/>
<path d="M439.674 330.308C439.385 340.688 440.431 351.069 442.811 361.197C442.955 361.882 444.001 361.594 443.857 360.909C441.513 350.889 440.467 340.616 440.792 330.308C440.756 329.623 439.674 329.623 439.674 330.308Z" fill="#919B9B"/>
<path d="M482.624 331.137C483.634 340.725 483.021 350.42 480.821 359.792C480.677 360.477 481.687 360.765 481.867 360.08C484.103 350.601 484.752 340.833 483.706 331.137C483.634 330.452 482.552 330.452 482.624 331.137Z" fill="#919B9B"/>
<path d="M443.244 362.207C455.721 365.379 468.92 364.946 481.146 360.909C481.795 360.693 481.506 359.647 480.857 359.864C468.776 363.829 455.83 364.297 443.532 361.161C442.847 361.017 442.559 362.062 443.244 362.207Z" fill="#919B9B"/>
<path d="M440.178 330.812C454.207 333.804 468.74 333.732 482.732 330.632C483.417 330.488 483.129 329.443 482.444 329.587C468.632 332.651 454.279 332.687 440.467 329.767C439.782 329.623 439.493 330.668 440.178 330.812Z" fill="#919B9B"/>
<path d="M448.726 331.209C446.851 326.992 448.545 321.838 449.952 317.692C451.394 313.403 453.45 309.33 455.974 305.582C455.686 305.618 455.397 305.654 455.109 305.69C455.938 306.627 456.84 307.276 457.958 307.816C458.391 307.997 458.859 307.708 458.751 307.204C458.318 305.257 457.561 303.347 458.427 301.401C459.04 300.031 459.905 298.661 460.626 297.364C460.374 297.436 460.121 297.508 459.869 297.544C460.626 298.012 461.384 298.445 462.141 298.914C462.646 299.238 463.079 298.625 462.898 298.157C462.141 296.499 461.636 294.841 462.682 293.183C463.295 292.173 464.088 291.272 464.774 290.335C466.288 288.317 467.875 286.298 469.462 284.316C472.491 280.531 475.628 276.855 478.874 273.25C478.586 273.214 478.297 273.178 478.009 273.142C482.625 279.197 485.546 286.442 486.339 294.012C486.736 297.652 486.627 301.401 485.978 305.005C485.654 306.843 485.185 308.645 484.608 310.412C484.5 310.772 484.356 311.132 484.247 311.457C483.851 312.466 483.202 312.899 482.156 313.115C481.434 313.259 481.038 313.151 480.425 313.619C480.136 313.836 480.064 314.196 480.317 314.485C481.11 315.314 481.434 315.458 481.146 316.575C480.966 317.296 480.533 318.053 480.208 318.774C479.559 320.216 478.838 321.621 478.081 322.991C476.53 325.802 474.763 328.47 472.779 330.993C472.347 331.533 473.104 332.29 473.537 331.75C477.359 326.848 480.389 321.477 482.661 315.71C482.733 315.53 482.661 315.314 482.516 315.169C482.048 314.701 481.579 314.196 481.074 313.728C481.038 314.016 481.002 314.304 480.966 314.593C481.795 314.016 482.733 314.412 483.598 314.052C484.283 313.8 484.644 313.295 484.933 312.646C485.726 310.952 486.231 309.006 486.664 307.204C487.565 303.239 487.854 299.166 487.565 295.129C486.952 286.983 483.959 279.089 478.982 272.601C478.802 272.349 478.405 272.205 478.117 272.493C474.114 276.927 470.255 281.504 466.577 286.19C464.918 288.281 463.151 290.371 461.708 292.642C460.41 294.696 461.023 296.643 461.925 298.733C462.177 298.481 462.43 298.229 462.682 297.976C461.925 297.508 461.167 297.075 460.41 296.607C460.158 296.463 459.797 296.535 459.653 296.787C458.751 298.445 457.345 300.283 456.84 302.121C456.407 303.743 457.309 305.87 457.669 307.456C457.922 307.24 458.21 307.059 458.463 306.843C457.417 306.375 456.587 305.762 455.83 304.897C455.578 304.608 455.145 304.717 454.965 305.005C452.152 309.186 449.952 313.764 448.437 318.594C447.139 322.775 445.877 327.532 447.716 331.714C448.077 332.362 449.014 331.822 448.726 331.209Z" fill="#919B9B"/>
<path d="M478.081 281.432C476.638 297.76 465.459 310.844 460.807 326.199C460.59 326.884 461.636 327.136 461.852 326.487C466.504 311.024 477.72 297.904 479.162 281.432C479.235 280.711 478.117 280.747 478.081 281.432Z" fill="#919B9B"/>
<path d="M464.449 290.118C465.603 296.066 466.937 301.941 468.452 307.78C468.632 308.465 469.678 308.176 469.498 307.492C467.983 301.653 466.649 295.741 465.495 289.83C465.387 289.145 464.341 289.434 464.449 290.118Z" fill="#919B9B"/>
<path d="M476.638 293.939C479.775 291.668 482.48 288.965 484.824 285.829C485.257 285.288 484.319 284.748 483.887 285.288C481.687 288.244 479.09 290.839 476.097 293.002C475.556 293.434 476.097 294.372 476.638 293.939Z" fill="#919B9B"/>
<path d="M473.284 278.512C474.258 281.612 474.835 285.397 477.215 287.74C477.72 288.244 478.477 287.451 477.973 286.983C475.773 284.784 475.196 281.072 474.294 278.224C474.114 277.575 473.068 277.864 473.284 278.512Z" fill="#919B9B"/>
<path d="M446.561 330.921C444.362 329.19 443.027 326.776 441.909 324.252C440.647 321.297 439.565 318.269 438.592 315.205C436.752 309.33 435.418 303.275 434.625 297.183C433.002 284.424 434.3 271.52 432.749 258.724C432.425 258.833 432.064 258.905 431.74 259.013C435.779 268.096 445.227 273.539 453.089 278.945C453.017 278.693 452.944 278.441 452.908 278.188C451.827 279.738 450.745 281.288 449.663 282.838C449.41 283.198 449.735 283.667 450.132 283.667C451.538 283.667 452.764 283.487 454.098 283.018C453.882 282.946 453.702 282.838 453.485 282.766C454.82 284.82 456.154 286.875 457.488 288.929C457.524 288.713 457.561 288.497 457.561 288.281C456.911 288.893 456.37 289.578 455.829 290.335C455.649 290.587 455.829 291.092 456.154 291.128C459.111 291.561 460.157 294.372 460.914 296.895C461.131 297.544 462.176 297.292 461.96 296.607C461.059 293.759 459.76 290.551 456.443 290.083C456.551 290.335 456.659 290.623 456.767 290.876C457.236 290.155 457.705 289.65 458.318 289.073C458.498 288.929 458.534 288.605 458.39 288.425C457.056 286.37 455.721 284.316 454.387 282.261C454.279 282.081 454.026 281.937 453.774 282.009C452.548 282.405 451.358 282.622 450.096 282.586C450.24 282.874 450.42 283.126 450.564 283.415C451.646 281.865 452.728 280.315 453.81 278.765C453.99 278.513 453.846 278.188 453.63 278.008C445.912 272.71 436.644 267.411 432.677 258.472C432.461 258.004 431.595 258.22 431.668 258.76C433.254 272.025 431.848 285.433 433.723 298.661C434.625 305.041 436.103 311.313 438.159 317.404C439.818 322.342 441.549 328.361 445.768 331.714C446.345 332.11 447.102 331.353 446.561 330.921Z" fill="#919B9B"/>
<path d="M431.957 259.806C434.878 267.88 437.33 276.386 441.261 284.064C443.208 287.848 445.336 291.561 447.175 295.417C449.158 299.598 450.925 303.852 452.729 308.069C452.981 308.718 453.919 308.141 453.666 307.528C451.971 303.491 450.24 299.454 448.401 295.489C446.598 291.597 444.506 287.884 442.487 284.1C438.448 276.386 435.959 267.736 432.966 259.554C432.75 258.869 431.704 259.157 431.957 259.806Z" fill="#919B9B"/>
<path d="M433.327 287.199C437.222 287.667 441.477 287.884 444.434 290.803C444.939 291.308 445.696 290.515 445.191 290.046C442.018 286.947 437.51 286.658 433.327 286.154C432.642 286.045 432.642 287.127 433.327 287.199Z" fill="#919B9B"/>
<path d="M443.749 272.601C443.1 274.944 442.667 277.359 442.487 279.81C442.343 281.901 442.09 284.352 442.811 286.37C443.028 287.019 444.074 286.731 443.857 286.082C443.172 284.172 443.424 281.793 443.569 279.774C443.749 277.431 444.182 275.125 444.795 272.854C444.975 272.205 443.929 271.917 443.749 272.601Z" fill="#919B9B"/>
<path d="M435.779 306.843C438.592 306.915 441.297 306.951 444.038 307.708C446.742 308.465 449.411 309.258 452.116 310.051C452.801 310.231 453.089 309.186 452.404 309.006C449.519 308.177 446.67 307.275 443.749 306.519C441.117 305.834 438.484 305.87 435.779 305.798C435.094 305.726 435.094 306.807 435.779 306.843Z" fill="#919B9B"/>
<path d="M475.231 329.911C477.648 329.587 480.028 329.587 482.444 329.911C482.336 329.659 482.228 329.37 482.119 329.118C481.903 329.443 479.739 329.479 479.306 329.515C478.333 329.659 477.323 329.803 476.349 330.019C476.205 330.055 475.231 330.163 475.195 330.272C475.267 330.091 476.71 330.127 476.926 330.127C477.972 330.127 479.018 330.236 480.064 330.308C480.064 329.947 480.064 329.587 480.064 329.226C479.162 329.19 478.369 329.298 477.467 329.551C476.89 329.695 476.998 330.596 477.612 330.596C479.018 330.596 480.28 330.308 481.65 329.947C482.336 329.767 482.047 328.722 481.362 328.902C480.136 329.226 478.91 329.515 477.612 329.515C477.648 329.875 477.72 330.235 477.756 330.56C478.513 330.344 479.27 330.272 480.064 330.272C480.749 330.272 480.749 329.226 480.064 329.19C478.477 329.118 476.169 328.541 474.726 329.443C474.149 329.803 473.32 330.74 474.077 331.317C474.402 331.569 474.763 331.425 475.159 331.389C476.241 331.173 477.287 330.92 478.369 330.74C479.631 330.524 482.155 330.848 483.021 329.659C483.201 329.406 483.021 328.902 482.696 328.866C480.172 328.505 477.72 328.505 475.195 328.83C474.546 328.902 474.546 329.983 475.231 329.911Z" fill="#919B9B"/>
<path d="M440.648 330.596C441.152 330.452 441.657 330.344 442.162 330.308C442.415 330.308 442.631 330.272 442.883 330.308C442.992 330.308 443.496 330.272 443.533 330.308C443.496 330.127 443.424 329.947 443.388 329.767C443.388 329.803 443.352 329.839 443.352 329.839C443.569 329.731 443.785 329.587 444.001 329.479C443.965 329.479 443.929 329.479 443.929 329.479C444.037 329.587 444.182 329.731 444.29 329.839C444.29 329.803 444.29 329.767 444.254 329.767C444.073 329.082 443.064 329.37 443.208 330.055C443.208 330.091 443.208 330.127 443.244 330.127C443.28 330.308 443.46 330.452 443.605 330.488C443.641 330.488 443.677 330.488 443.677 330.488C443.965 330.56 444.218 330.416 444.326 330.127C444.326 330.091 444.362 330.055 444.362 330.055C444.434 329.875 444.362 329.659 444.218 329.515C443.821 329.118 442.956 329.19 442.451 329.19C441.729 329.19 440.972 329.334 440.287 329.515C439.71 329.731 439.998 330.776 440.648 330.596Z" fill="#919B9B"/>
<path d="M441.477 337.841C454.64 340.112 468.307 341.193 481.29 337.3C481.939 337.084 481.686 336.075 481.001 336.255C468.235 340.076 454.748 339.03 441.765 336.796C441.08 336.687 440.792 337.733 441.477 337.841Z" fill="#919B9B"/>
<path d="M486.808 352.655C509.924 352.655 533.076 352.655 556.192 352.655C556.877 352.655 556.877 351.574 556.192 351.574C533.076 351.574 509.924 351.574 486.808 351.574C486.087 351.574 486.087 352.655 486.808 352.655Z" fill="#919B9B"/>
<path d="M469.317 375.831C491.099 375.831 512.917 375.831 534.699 375.831C535.384 375.831 535.384 374.75 534.699 374.75C512.917 374.75 491.099 374.75 469.317 374.75C468.632 374.75 468.632 375.831 469.317 375.831Z" fill="#919B9B"/>
<path d="M479.234 375.723C476.638 377.886 474.041 380.012 471.481 382.175C470.94 382.607 471.697 383.364 472.238 382.932C474.835 380.769 477.431 378.643 479.992 376.48C480.533 376.047 479.739 375.254 479.234 375.723Z" fill="#919B9B"/>
<path d="M471.805 383.328C472.491 383.328 472.491 382.247 471.805 382.247C471.12 382.247 471.12 383.328 471.805 383.328Z" fill="#919B9B"/>
<path d="M482.805 382.247C460.843 382.247 438.881 382.247 416.918 382.247C416.233 382.247 416.233 383.328 416.918 383.328C438.881 383.328 460.843 383.328 482.805 383.328C483.49 383.328 483.49 382.247 482.805 382.247Z" fill="#919B9B"/>
<path d="M416.81 393.421C420.705 390.177 424.708 387.077 428.819 384.085C429.36 383.689 428.855 382.752 428.278 383.148C424.095 386.176 420.02 389.348 416.053 392.628C415.512 393.096 416.269 393.853 416.81 393.421Z" fill="#919B9B"/>
<path d="M88.4973 373.741C113.957 373.741 139.418 373.741 164.878 373.741C172.09 373.741 179.303 373.741 186.515 373.741C187.2 373.741 187.2 372.659 186.515 372.659C161.055 372.659 135.595 372.659 110.135 372.659C102.922 372.659 95.7098 372.659 88.4973 372.659C87.8121 372.659 87.8121 373.741 88.4973 373.741Z" fill="#919B9B"/>
<path d="M101.805 383.148C105.231 380.229 108.693 377.309 112.119 374.39C112.659 373.921 111.866 373.164 111.361 373.633C107.935 376.552 104.473 379.472 101.047 382.392C100.506 382.824 101.3 383.617 101.805 383.148Z" fill="#919B9B"/>
<path d="M89.3987 384.194C113.056 384.194 136.713 384.194 160.37 384.194C161.055 384.194 161.055 383.112 160.37 383.112C136.713 383.112 113.056 383.112 89.3987 383.112C88.7135 383.112 88.7135 384.194 89.3987 384.194Z" fill="#919B9B"/>
<path d="M152.112 383.977C149.407 387.005 146.63 389.961 143.817 392.916C143.348 393.421 144.106 394.178 144.575 393.673C147.387 390.718 150.128 387.762 152.869 384.734C153.374 384.23 152.58 383.473 152.112 383.977Z" fill="#919B9B"/>
<path d="M133.648 394.647C154.456 394.647 175.228 394.647 196.036 394.647C196.721 394.647 196.721 393.565 196.036 393.565C175.228 393.565 154.456 393.565 133.648 393.565C132.962 393.565 132.962 394.647 133.648 394.647Z" fill="#919B9B"/>
<path d="M118.898 355.611C127.697 355.611 136.497 355.611 145.332 355.611C146.017 355.611 146.017 354.529 145.332 354.529C136.533 354.529 127.733 354.529 118.898 354.529C118.213 354.529 118.213 355.611 118.898 355.611Z" fill="#919B9B"/>
<path d="M152.003 359.143C154.708 359.143 157.449 359.143 160.153 359.143C160.839 359.143 160.839 358.062 160.153 358.062C157.449 358.062 154.708 358.062 152.003 358.062C151.282 358.062 151.282 359.143 152.003 359.143Z" fill="#919B9B"/>
<path d="M132.421 166.415C132.421 172.291 132.421 178.202 132.421 184.077C132.421 184.762 133.503 184.762 133.503 184.077C133.503 178.202 133.503 172.291 133.503 166.415C133.503 165.731 132.421 165.731 132.421 166.415Z" fill="#919B9B"/>
<path d="M114.282 184.942C128.779 184.942 143.276 184.942 157.774 184.942C158.459 184.942 158.459 183.861 157.774 183.861C143.276 183.861 128.779 183.861 114.282 183.861C113.597 183.861 113.597 184.942 114.282 184.942Z" fill="#919B9B"/>
<path d="M144.646 185.447C144.646 189.988 144.646 194.494 144.646 199.036C144.646 199.72 145.728 199.72 145.728 199.036C145.728 194.494 145.728 189.988 145.728 185.447C145.728 184.726 144.646 184.726 144.646 185.447Z" fill="#919B9B"/>
<path d="M132.638 200.909C144.178 200.909 155.754 200.909 167.294 200.909C167.979 200.909 167.979 199.828 167.294 199.828C155.754 199.828 144.178 199.828 132.638 199.828C131.917 199.828 131.917 200.909 132.638 200.909Z" fill="#919B9B"/>
<path d="M423.662 153.764C423.662 155.206 423.662 156.612 423.662 158.053C423.662 158.738 424.744 158.738 424.744 158.053C424.744 156.612 424.744 155.206 424.744 153.764C424.744 153.079 423.662 153.079 423.662 153.764Z" fill="#919B9B"/>
<path d="M424.528 154.629C449.339 154.629 474.15 154.629 498.961 154.629C499.646 154.629 499.646 153.548 498.961 153.548C474.15 153.548 449.339 153.548 424.528 153.548C423.842 153.548 423.842 154.629 424.528 154.629Z" fill="#919B9B"/>
<path d="M425.177 158.594C449.771 158.594 474.366 158.594 498.925 158.594C499.61 158.594 499.61 157.513 498.925 157.513C474.33 157.513 449.735 157.513 425.177 157.513C424.492 157.513 424.492 158.594 425.177 158.594Z" fill="#919B9B"/>
<path d="M498.78 153.764C498.636 155.242 498.708 156.72 498.961 158.198C499.069 158.882 500.115 158.594 500.006 157.909C499.754 156.54 499.718 155.134 499.862 153.764C499.934 153.079 498.852 153.079 498.78 153.764Z" fill="#919B9B"/>
<path d="M429.612 153.8C429.612 143.744 429.612 133.688 429.612 123.631C429.612 122.946 428.531 122.946 428.531 123.631C428.531 133.688 428.531 143.744 428.531 153.8C428.531 154.521 429.612 154.521 429.612 153.8Z" fill="#919B9B"/>
<path d="M429.612 123.811C432.678 122.586 435.923 122.766 438.772 124.46C439.385 124.821 439.926 123.883 439.313 123.523C436.248 121.721 432.606 121.432 429.324 122.766C428.675 123.018 428.963 124.064 429.612 123.811Z" fill="#919B9B"/>
<path d="M438.592 124.208C438.592 133.868 438.592 143.564 438.592 153.223C438.592 153.908 439.674 153.908 439.674 153.223C439.674 143.564 439.674 133.868 439.674 124.208C439.674 123.523 438.592 123.523 438.592 124.208Z" fill="#919B9B"/>
<path d="M439.818 132.282C442.018 131.381 444.326 131.525 446.382 132.787C446.995 133.147 447.536 132.21 446.923 131.849C444.651 130.48 441.982 130.227 439.53 131.237C438.881 131.489 439.169 132.534 439.818 132.282Z" fill="#919B9B"/>
<path d="M446.165 132.75C446.165 139.527 446.165 146.267 446.165 153.043C446.165 153.728 447.247 153.728 447.247 153.043C447.247 146.267 447.247 139.527 447.247 132.75C447.247 132.066 446.165 132.066 446.165 132.75Z" fill="#919B9B"/>
<path d="M429.757 132.102C432.822 131.417 435.851 131.633 438.808 132.678C439.458 132.895 439.746 131.849 439.097 131.633C435.959 130.516 432.714 130.371 429.468 131.056C428.819 131.2 429.108 132.246 429.757 132.102Z" fill="#919B9B"/>
<path d="M439.061 144.609C441.369 143.996 443.677 143.924 446.021 144.429C446.706 144.573 446.995 143.527 446.31 143.383C443.785 142.843 441.297 142.879 438.772 143.564C438.123 143.744 438.376 144.789 439.061 144.609Z" fill="#919B9B"/>
<path d="M459.796 153.44C459.796 151.421 459.796 149.403 459.796 147.384C459.796 146.699 458.715 146.699 458.715 147.384C458.715 149.403 458.715 151.421 458.715 153.44C458.715 154.124 459.796 154.124 459.796 153.44Z" fill="#919B9B"/>
<path d="M459.256 147.709C470.976 147.709 482.66 147.709 494.38 147.709C495.066 147.709 495.066 146.627 494.38 146.627C482.66 146.627 470.976 146.627 459.256 146.627C458.534 146.627 458.534 147.709 459.256 147.709Z" fill="#919B9B"/>
<path d="M494.742 148.285C495.427 148.285 495.427 147.204 494.742 147.204C494.02 147.204 494.02 148.285 494.742 148.285Z" fill="#919B9B"/>
<path d="M494.201 147.745C494.201 149.583 494.201 151.421 494.201 153.259C494.201 153.944 495.283 153.944 495.283 153.259C495.283 151.421 495.283 149.583 495.283 147.745C495.283 147.06 494.201 147.06 494.201 147.745Z" fill="#919B9B"/>
<path d="M466.613 146.988C466.613 145.078 466.613 143.203 466.613 141.293C466.613 140.608 465.531 140.608 465.531 141.293C465.531 143.203 465.531 145.078 465.531 146.988C465.531 147.673 466.613 147.673 466.613 146.988Z" fill="#919B9B"/>
<path d="M466.072 141.653C477.575 141.653 489.079 141.653 500.619 141.653C501.305 141.653 501.305 140.572 500.619 140.572C489.115 140.572 477.612 140.572 466.072 140.572C465.386 140.572 465.386 141.653 466.072 141.653Z" fill="#919B9B"/>
<path d="M500.259 141.112C500.259 142.698 500.259 144.284 500.259 145.87C500.259 146.555 501.341 146.555 501.341 145.87C501.341 144.284 501.341 142.698 501.341 141.112C501.341 140.392 500.259 140.392 500.259 141.112Z" fill="#919B9B"/>
<path d="M493.984 147.889C496.076 147.889 498.168 147.889 500.259 147.889C500.944 147.889 500.944 146.808 500.259 146.808C498.168 146.808 496.076 146.808 493.984 146.808C493.263 146.808 493.263 147.889 493.984 147.889Z" fill="#919B9B"/>
<path d="M500.187 145.907C500.115 146.303 500.115 146.664 500.223 147.024C500.295 147.312 500.62 147.493 500.872 147.384C501.161 147.312 501.341 146.988 501.233 146.736C501.197 146.555 501.161 146.339 501.197 146.195C501.233 145.907 501.125 145.582 500.836 145.546C500.584 145.474 500.223 145.618 500.187 145.907Z" fill="#919B9B"/>
<path d="M474.294 141.365C474.763 143.203 474.871 145.078 474.618 146.988C474.546 147.673 475.628 147.673 475.7 146.988C475.953 145.005 475.808 143.023 475.34 141.077C475.159 140.428 474.113 140.716 474.294 141.365Z" fill="#919B9B"/>
<path d="M482.444 147.636C482.697 149.439 482.552 151.205 482.12 152.935C481.939 153.62 482.985 153.908 483.166 153.223C483.67 151.277 483.779 149.331 483.49 147.348C483.418 146.663 482.372 146.952 482.444 147.636Z" fill="#919B9B"/>
<path d="M475.376 191.502C475.376 194.35 475.376 197.161 475.376 200.008C475.376 200.693 476.458 200.693 476.458 200.008C476.458 197.161 476.458 194.35 476.458 191.502C476.458 190.781 475.376 190.781 475.376 191.502Z" fill="#919B9B"/>
<path d="M467.009 200.153C474.222 200.153 481.435 200.153 488.647 200.153C489.332 200.153 489.332 199.071 488.647 199.071C481.435 199.071 474.222 199.071 467.009 199.071C466.324 199.071 466.324 200.153 467.009 200.153Z" fill="#919B9B"/>
<path d="M454.712 78.9003C454.712 85.3883 454.712 91.9122 454.712 98.4002C454.712 99.085 455.794 99.085 455.794 98.4002C455.794 91.9122 455.794 85.3883 455.794 78.9003C455.794 78.2155 454.712 78.2155 454.712 78.9003Z" fill="#919B9B"/>
<path d="M456.082 78.8645C464.305 78.8645 472.491 78.8645 480.713 78.8645C481.398 78.8645 481.398 77.7832 480.713 77.7832C472.491 77.7832 464.305 77.7832 456.082 77.7832C455.397 77.7832 455.397 78.8645 456.082 78.8645Z" fill="#919B9B"/>
<path d="M480.749 78.7202C480.749 84.9918 480.749 91.2635 480.749 97.4991C480.749 98.184 481.831 98.184 481.831 97.4991C481.831 91.2275 481.831 84.9558 481.831 78.7202C481.831 78.0353 480.749 78.0353 480.749 78.7202Z" fill="#919B9B"/>
<path d="M455.109 99.013C463.836 99.013 472.563 99.013 481.29 99.013C481.975 99.013 481.975 97.9316 481.29 97.9316C472.563 97.9316 463.836 97.9316 455.109 97.9316C454.424 97.9316 454.424 99.013 455.109 99.013Z" fill="#919B9B"/>
<path d="M457.128 81.1352C457.128 86.0732 457.128 90.9752 457.128 95.9133C457.128 96.5981 458.21 96.5981 458.21 95.9133C458.21 90.9752 458.21 86.0732 458.21 81.1352C458.21 80.4504 457.128 80.4504 457.128 81.1352Z" fill="#919B9B"/>
<path d="M457.922 81.5677C464.665 81.5677 471.445 81.5677 478.189 81.5677C478.874 81.5677 478.874 80.4863 478.189 80.4863C471.445 80.4863 464.665 80.4863 457.922 80.4863C457.236 80.4863 457.236 81.5677 457.922 81.5677Z" fill="#919B9B"/>
<path d="M477.792 81.1352C477.792 85.7128 477.792 90.2544 477.792 94.832C477.792 95.5168 478.874 95.5168 478.874 94.832C478.874 90.2544 478.874 85.7128 478.874 81.1352C478.874 80.4504 477.792 80.4504 477.792 81.1352Z" fill="#919B9B"/>
<path d="M457.922 96.4539C464.629 96.4539 471.337 96.4539 478.081 96.4539C478.766 96.4539 478.766 95.3726 478.081 95.3726C471.373 95.3726 464.665 95.3726 457.922 95.3726C457.236 95.3726 457.236 96.4539 457.922 96.4539Z" fill="#919B9B"/>
<path d="M470.688 89.9659C467.839 87.8032 472.094 83.2977 474.078 86.001C475.917 88.452 472.924 91.4076 470.363 90.038C469.75 89.7136 469.209 90.6507 469.822 90.9751C471.481 91.8762 473.681 91.6239 474.871 90.074C476.097 88.5241 475.953 86.0731 474.402 84.7755C472.779 83.4419 470.471 84.343 469.353 85.8568C468.163 87.5149 468.524 89.6775 470.147 90.903C470.724 91.2995 471.229 90.3624 470.688 89.9659Z" fill="#919B9B"/>
<path d="M467.262 95.3005C467.117 92.453 470.615 91.3717 472.815 91.3717C475.52 91.3717 476.385 93.7867 477.503 95.8412C477.828 96.4539 478.765 95.9133 478.441 95.3005C477.684 93.9309 476.962 92.1287 475.7 91.1194C474.546 90.2183 473.104 90.2544 471.733 90.3985C469.209 90.6869 465.999 92.2368 466.18 95.3005C466.216 95.9854 467.298 95.9854 467.262 95.3005Z" fill="#919B9B"/>
<path d="M458.391 92.7055C459.184 91.2277 462.105 91.8044 463.187 92.3811C464.305 92.9938 464.954 94.003 465.242 95.2285C465.387 95.9134 466.432 95.625 466.288 94.9402C465.855 93.0659 464.557 91.5881 462.682 90.9753C461.095 90.4707 458.391 90.4347 457.489 92.1288C457.128 92.7775 458.066 93.3182 458.391 92.7055Z" fill="#919B9B"/>
<path d="M460.482 90.0381C459.292 90.002 459.581 88.2359 460.085 87.6231C460.735 86.8301 462.033 86.722 462.79 87.4789C463.403 88.0556 463.583 89.137 463.079 89.8218C462.718 90.3264 462.177 90.4345 461.6 90.4345C461.384 90.4345 460.482 90.4706 460.338 90.2904C459.941 89.7137 459.004 90.2543 459.4 90.831C459.833 91.4798 460.735 91.5159 461.456 91.5159C462.321 91.5519 463.151 91.3356 463.764 90.6869C464.918 89.4253 464.521 87.2987 463.151 86.3616C461.672 85.3884 459.617 85.929 458.859 87.515C458.21 88.9207 458.679 91.0473 460.482 91.0833C461.203 91.1554 461.203 90.0741 460.482 90.0381Z" fill="#919B9B"/>
<path d="M239.779 174.705C241.474 176.075 243.566 175.498 245.153 174.164C247.388 172.326 248.506 169.19 248.939 166.415C250.057 159.35 247.208 152.646 246.09 145.798C244.071 133.074 249.624 119.45 259.938 111.808C264.951 108.06 273.209 104.059 271.262 96.3813C271.082 95.6965 270.036 95.9849 270.216 96.6697C272.055 103.987 263.544 107.699 258.892 111.231C254.709 114.439 251.319 118.584 248.903 123.234C246.523 127.74 245.08 132.75 244.684 137.832C244.215 143.995 245.838 149.726 247.172 155.674C247.965 159.278 248.47 163.063 247.785 166.739C247.461 168.433 246.884 170.091 245.982 171.569C244.972 173.155 242.556 175.606 240.537 173.984C240.032 173.516 239.238 174.272 239.779 174.705Z" fill="#919B9B"/>
<path d="M270.865 95.9491C266.79 96.1293 263.22 92.9574 263.437 88.7763C263.653 84.415 268.81 80.378 273.173 81.5315C277.068 82.5767 280.061 86.866 279.088 90.8669C278.114 94.8678 273.606 95.7328 270.144 96.3095C269.459 96.4177 269.747 97.4629 270.433 97.3548C274.904 96.6339 280.097 95.048 280.386 89.6414C280.602 85.244 276.671 80.4862 272.164 80.306C267.403 80.0897 262.607 83.9824 262.355 88.8124C262.138 93.5702 266.213 97.2467 270.865 97.0664C271.551 96.9944 271.551 95.913 270.865 95.9491Z" fill="#919B9B"/>
<path d="M265.528 93.1374C267.259 88.776 276.491 88.0552 277.573 93.2455C277.717 93.9304 278.763 93.642 278.619 92.9572C277.285 86.6134 266.574 87.5506 264.482 92.849C264.23 93.4978 265.276 93.7501 265.528 93.1374Z" fill="#919B9B"/>
<path d="M270.937 88.2716C270.18 87.7309 269.891 86.6856 270.396 85.8926C270.973 84.9195 272.199 84.8113 273.137 85.3159C273.858 85.7124 274.002 86.6135 273.57 87.2984C273.029 88.1274 271.875 88.2355 270.973 88.0192C270.288 87.8751 270 88.9204 270.685 89.0645C272.127 89.3889 273.858 89.0645 274.579 87.6588C275.229 86.3973 274.76 84.8834 273.462 84.2707C272.019 83.6219 270.288 83.9102 269.459 85.3159C268.629 86.6496 269.17 88.3076 270.396 89.1727C270.973 89.6412 271.514 88.7041 270.937 88.2716Z" fill="#919B9B"/>
<path d="M286.228 77.17C290.014 67.1498 300.905 62.0316 311.039 61.3467C317.746 60.8782 324.454 61.9234 331.017 63.185C337.22 64.4105 343.675 66.3568 350.022 66.1406C355.251 65.9604 360.625 63.7977 363.077 58.9318C363.402 58.319 362.464 57.7784 362.139 58.3911C359.291 64.014 352.727 65.4558 346.921 64.9872C340.141 64.4465 333.47 62.4281 326.798 61.3107C315.979 59.5085 304.439 59.2562 294.811 65.3476C290.447 68.123 286.985 72.0158 285.146 76.8817C284.93 77.5305 285.975 77.8188 286.228 77.17Z" fill="#919B9B"/>
<path d="M367.44 58.3191C376.961 58.3191 386.517 58.3191 396.038 58.3191C396.723 58.3191 396.723 57.2378 396.038 57.2378C386.517 57.2378 376.961 57.2378 367.44 57.2378C366.719 57.2378 366.719 58.3191 367.44 58.3191Z" fill="#919B9B"/>
<path d="M367.044 57.1657C365.349 55.5076 367.188 52.6962 368.523 51.4347C370.146 49.8487 372.381 49.236 374.545 50.101C374.726 50.1731 375.086 50.065 375.158 49.8487C376.457 46.821 379.522 44.6223 382.876 44.7665C386.374 44.9107 389.331 47.5419 390.196 50.858C390.268 51.1824 390.701 51.3626 390.99 51.1824C392.576 50.2092 394.199 51.3626 394.848 52.8404C395.425 54.2101 395.281 55.76 395.137 57.2378C395.065 57.9226 396.147 57.9226 396.219 57.2378C396.435 55.0751 396.579 52.516 394.848 50.858C393.622 49.7046 391.927 49.3441 390.485 50.2452C390.737 50.3533 391.026 50.4615 391.278 50.5696C390.305 46.9652 387.203 44.0817 383.417 43.7212C379.522 43.3248 375.771 45.7397 374.257 49.3081C374.473 49.236 374.653 49.1279 374.87 49.0558C371.985 47.9024 368.956 49.1278 367.08 51.5068C365.674 53.2729 364.448 56.1204 366.359 57.9586C366.792 58.4272 367.549 57.6703 367.044 57.1657Z" fill="#919B9B"/>
<path d="M387.563 62.4641C391.999 61.9595 394.596 66.6091 395.281 70.3577C396.002 74.2144 395.317 78.0711 394.92 81.9279C394.307 87.7309 394.704 94.7235 400.221 98.1116C400.798 98.4721 401.375 97.5349 400.762 97.1745C393.225 92.5609 396.363 82.2883 396.651 75.2237C396.868 69.8531 394.74 60.5898 387.563 61.3827C386.878 61.4548 386.878 62.5362 387.563 62.4641Z" fill="#919B9B"/>
<path d="M406.208 92.02C402.962 100.202 399.753 108.384 396.507 116.53C396.255 117.179 397.301 117.467 397.553 116.818C400.799 108.636 404.008 100.454 407.254 92.3084C407.506 91.6596 406.461 91.4073 406.208 92.02Z" fill="#919B9B"/>
<path d="M406.713 92.7049C412.339 92.4165 417.928 92.5607 423.518 93.2095C423.338 92.9932 423.157 92.7409 423.013 92.5247C420.345 101.067 418.181 109.718 416.45 118.476C416.306 119.161 417.351 119.45 417.496 118.765C419.227 110.006 421.427 101.355 424.059 92.813C424.167 92.4526 423.879 92.1642 423.554 92.1282C417.965 91.4794 412.375 91.3352 406.749 91.6235C406.028 91.6596 406.028 92.7409 406.713 92.7049Z" fill="#919B9B"/>
<path d="M396.759 117.576C400.077 117.72 403.359 117.9 406.677 118.116C409.886 118.296 413.312 118.224 416.341 119.45C416.99 119.702 417.279 118.657 416.63 118.405C413.745 117.215 410.463 117.287 407.398 117.107C403.864 116.891 400.33 116.711 396.759 116.53C396.074 116.458 396.074 117.54 396.759 117.576Z" fill="#919B9B"/>
<path d="M407.217 96.3093C410.679 96.3814 414.142 96.6337 417.567 97.1022C418.253 97.2104 418.541 96.1651 417.856 96.057C414.322 95.5523 410.788 95.264 407.217 95.1919C406.496 95.1919 406.496 96.2732 407.217 96.3093Z" fill="#919B9B"/>
<path d="M406.172 98.7606C408.119 98.6885 410.067 98.7245 412.014 98.9047C412.699 98.9768 412.699 97.8955 412.014 97.8234C410.067 97.6432 408.119 97.5711 406.172 97.6792C405.487 97.7153 405.487 98.7966 406.172 98.7606Z" fill="#919B9B"/>
<path d="M403.792 103.626C407.939 103.374 411.87 103.013 415.945 104.023C416.63 104.203 416.918 103.158 416.233 102.977C412.05 101.968 408.047 102.292 403.792 102.545C403.07 102.581 403.07 103.662 403.792 103.626Z" fill="#919B9B"/>
<path d="M403.972 106.798C406.352 106.618 408.732 106.618 411.112 106.834C411.798 106.906 411.798 105.825 411.112 105.753C408.732 105.537 406.352 105.537 403.972 105.717C403.287 105.789 403.251 106.87 403.972 106.798Z" fill="#919B9B"/>
<path d="M402.097 110.98C405.342 110.763 408.516 110.871 411.725 111.304C412.411 111.412 412.411 110.331 411.725 110.223C408.516 109.79 405.306 109.682 402.097 109.898C401.411 109.934 401.411 111.016 402.097 110.98Z" fill="#919B9B"/>
<path d="M222.65 62.6084C224.092 64.5547 226.184 65.3477 228.312 66.3209C230.836 67.4743 233.144 69.0242 235.019 71.0787C239.275 75.6563 240.681 81.8198 240.789 87.9113C241.042 99.3372 237.183 111.304 242.376 122.117C242.664 122.73 243.602 122.189 243.314 121.576C237.868 110.186 242.701 97.4269 241.763 85.4603C241.366 80.2699 239.888 75.1877 236.534 71.1508C234.947 69.2405 233 67.5824 230.836 66.3569C228.42 64.9873 225.282 64.3745 223.587 62.0677C223.191 61.527 222.253 62.0677 222.65 62.6084Z" fill="#919B9B"/>
<path d="M210.316 47.3613C209.379 46.1719 209.451 45.3429 210.533 44.8743C211.001 44.622 211.47 44.4418 212.011 44.3336C212.696 44.1895 213.454 44.1534 214.175 44.1895C216.339 44.2976 218.538 44.8743 218.43 47.5055C218.322 50.6053 217.745 53.669 216.988 56.6607C216.194 59.7244 215.221 62.7161 214.175 65.7078C213.958 66.3565 213.778 67.1135 213.454 67.7262C212.804 68.8436 211.795 68.8075 210.713 68.8075C209.379 68.8075 207.684 68.9878 206.385 68.6273C204.943 68.2308 204.618 66.7891 206.025 65.8519C206.674 65.4194 207.575 65.3473 208.333 65.3473C209.306 65.3473 210.172 65.5636 211.001 64.9148C212.588 63.6893 212.841 60.3732 213.201 58.6071C213.742 56.048 214.644 52.9121 214.463 50.317C214.319 48.3345 212.372 48.2624 210.965 47.4334C210.352 47.073 209.811 48.0101 210.424 48.3706C211.542 49.0194 213.165 49.0915 213.381 50.5693C213.634 52.2994 212.913 54.6422 212.588 56.3723C212.264 58.0304 211.903 59.6884 211.47 61.3104C211.146 62.5359 211.001 64.0137 209.379 64.3381C208.729 64.4823 207.936 64.266 207.251 64.3741C205.52 64.6264 203.825 65.8519 204.077 67.7983C204.402 70.2493 207.323 69.8168 209.126 69.8889C211.362 69.9609 213.598 70.2853 214.608 67.9064C215.87 64.9508 216.771 61.7069 217.637 58.6431C218.538 55.4712 219.224 52.1912 219.476 48.9112C219.692 46.3521 219.801 44.2976 216.952 43.6128C214.463 43 211.037 42.7117 209.09 44.7301C207.792 46.0638 208.116 48.695 210.352 48.5147C211.001 48.3706 211.001 47.2892 210.316 47.3613Z" fill="#919B9B"/>
<path d="M205.953 51.2184C205.917 51.1824 205.881 51.1463 205.845 51.1103C205.7 50.9661 205.484 50.9301 205.304 50.9661C204.258 51.3266 203.861 53.0206 203.573 53.9578C203.068 55.6879 202.96 57.454 203.212 59.2563C203.284 59.9411 204.366 59.9411 204.294 59.2563C204.15 57.9947 204.114 56.7692 204.33 55.5077C204.438 54.8589 205.556 52.3358 205.159 51.9754C205.664 52.48 206.422 51.7231 205.953 51.2184Z" fill="#919B9B"/>
<path d="M202.31 47.2534C198.993 51.4705 196.865 56.5527 198.271 61.9594C198.452 62.6442 199.498 62.3558 199.317 61.671C198.019 56.6969 200.038 51.9031 203.068 48.0103C203.5 47.4696 202.743 46.7127 202.31 47.2534Z" fill="#919B9B"/>
<path d="M197.767 42.3875C192.249 49.6324 189.653 58.7876 190.59 67.8707C190.662 68.5555 191.744 68.5555 191.672 67.8707C190.771 58.9678 193.259 50.0649 198.704 42.9282C199.101 42.3875 198.163 41.8469 197.767 42.3875Z" fill="#919B9B"/>
<path d="M190.085 79.2244C187.308 80.5581 184.712 82.3963 182.656 84.7031C180.565 87.082 179.916 89.6412 179.591 92.741C178.87 99.8416 176.237 107.627 169.097 110.619C168.448 110.871 168.736 111.916 169.385 111.664C175.083 109.285 178.401 103.879 179.807 98.0394C180.637 94.5432 180.24 90.3981 182.079 87.2623C183.955 84.0543 187.344 81.7115 190.626 80.1255C191.275 79.8732 190.734 78.9361 190.085 79.2244Z" fill="#919B9B"/>
<path d="M153.842 129.758C151.462 129.83 148.758 128.821 147.892 126.37C146.882 123.487 149.046 120.675 151.354 119.197C155.826 116.314 161.848 115.196 167.041 115.124C169.674 115.088 172.667 115.124 174.975 116.53C177.932 118.332 178.437 121.72 176.129 124.28C172.631 128.172 166.609 128.569 161.776 128.929C161.091 128.965 161.091 130.047 161.776 130.011C166.609 129.65 172.018 129.218 175.913 125.974C179.483 123.018 179.735 118.116 175.552 115.557C171.225 112.926 164.625 113.791 159.937 114.8C155.429 115.773 149.263 117.539 147.243 122.189C145.151 126.947 149.154 130.912 153.915 130.768C154.564 130.804 154.564 129.722 153.842 129.758Z" fill="#919B9B"/>
<path d="M153.662 130.191C152.761 131.632 151.895 133.074 150.994 134.48C150.705 134.948 151.282 135.453 151.751 135.237C153.951 134.047 156.331 133.29 158.567 132.245C159.793 131.704 160.983 131.056 162.137 130.335C162.534 130.083 163.002 129.938 163.111 129.434C163.183 129.181 163.039 128.821 162.75 128.785C162.714 128.785 162.678 128.785 162.642 128.749C162.389 128.713 162.029 128.821 161.993 129.109C161.993 129.145 161.993 129.145 161.993 129.181C161.848 129.866 162.894 130.155 163.039 129.47C163.039 129.434 163.039 129.434 163.039 129.398C162.822 129.506 162.606 129.65 162.389 129.758C162.425 129.758 162.462 129.758 162.498 129.794C162.389 129.578 162.245 129.362 162.137 129.145C162.029 129.506 160.009 130.335 159.577 130.587C158.495 131.164 157.377 131.632 156.223 132.101C154.528 132.786 152.869 133.435 151.282 134.3C151.535 134.552 151.787 134.804 152.039 135.057C152.941 133.615 153.807 132.173 154.708 130.767C154.961 130.155 154.023 129.614 153.662 130.191Z" fill="#919B9B"/>
<path d="M154.852 123.956C154.816 123.883 154.816 123.739 154.924 123.739C155.213 123.739 154.888 124.1 154.852 124.136C154.672 124.244 154.059 124.388 154.095 124.028C154.131 123.595 154.96 123.127 155.104 123.775C155.14 123.956 154.996 124.172 154.816 124.208C154.708 124.244 154.636 124.244 154.563 124.172C154.527 124.136 154.455 124.1 154.527 124.1C155.213 124.136 155.213 123.054 154.527 123.018C153.806 122.946 153.265 123.703 153.446 124.388C153.626 125.073 154.419 125.433 155.068 125.253C155.717 125.073 156.222 124.496 156.222 123.811C156.222 123.127 155.681 122.55 155.068 122.406C153.734 122.081 152.328 124.028 153.482 125.001C154.419 125.794 156.294 125.073 156.186 123.739C156.114 123.018 155.321 122.442 154.6 122.694C153.878 122.946 153.59 123.847 153.95 124.496C154.239 125.109 155.177 124.568 154.852 123.956Z" fill="#919B9B"/>
<path d="M162.822 122.982C162.786 122.766 162.678 122.477 162.894 122.297C163.002 122.189 163.183 122.189 163.327 122.189C163.688 122.261 163.615 122.658 163.363 122.838C163.219 122.946 163.074 122.946 162.966 122.802C162.858 122.658 162.894 122.622 163.002 122.549C163.074 122.513 162.858 122.549 163.038 122.513C163.471 122.441 162.75 122.946 162.858 122.586C162.642 123.27 163.688 123.523 163.904 122.874C164.084 122.225 163.471 121.576 162.822 121.684C162.065 121.829 161.884 122.73 162.353 123.27C162.786 123.775 163.579 123.667 163.904 123.09C164.228 122.513 164.012 121.757 163.363 121.54C162.714 121.324 161.993 121.72 161.848 122.369C161.668 123.09 162.173 123.811 162.894 123.991C164.192 124.28 165.274 122.513 164.337 121.54C163.868 121.072 163.111 121.036 162.534 121.288C161.74 121.684 161.704 122.513 161.848 123.27C161.884 123.955 162.93 123.667 162.822 122.982Z" fill="#919B9B"/>
<path d="M170.828 120.567C170.972 120.567 171.116 120.603 171.297 120.603V120.567C171.333 120.531 171.333 120.459 171.369 120.423C171.405 120.351 171.513 120.279 171.585 120.243C171.766 120.17 171.946 120.17 172.054 120.351C172.198 120.639 171.946 121.18 171.585 120.963C171.369 120.819 171.333 120.459 171.657 120.531C171.729 120.531 171.766 120.567 171.802 120.603C171.802 120.603 171.802 120.675 171.802 120.603C171.802 120.531 171.802 120.639 171.766 120.639C171.657 120.711 171.621 120.783 171.513 120.711C171.261 120.531 170.9 120.675 170.756 120.891C170.612 121.18 170.72 121.468 170.936 121.648C171.982 122.405 173.388 120.891 172.559 119.882C171.802 118.981 170.179 119.558 170.251 120.747C170.287 121.36 170.756 121.901 171.333 122.045C171.91 122.189 172.523 121.901 172.847 121.396C173.569 120.279 172.559 118.729 171.225 119.161C170.612 119.377 170.071 119.99 170.143 120.675C170.215 121.432 171.297 121.828 171.693 121.072C172.054 120.495 171.152 119.954 170.828 120.567Z" fill="#919B9B"/>
<path d="M192.609 89.1365C197.045 86.6855 200.904 83.4415 204.113 79.5128C204.546 78.9721 203.789 78.2152 203.356 78.7558C200.219 82.6125 196.432 85.7844 192.069 88.1994C191.455 88.5238 191.996 89.4609 192.609 89.1365Z" fill="#919B9B"/>
<path d="M246.559 90.0737C245.765 94.6153 245.441 99.1929 245.657 103.806C245.693 104.491 246.775 104.491 246.739 103.806C246.523 99.301 246.811 94.7955 247.605 90.3621C247.713 89.6772 246.667 89.3889 246.559 90.0737Z" fill="#919B9B"/>
<path d="M241.042 195.43C241.042 189.916 243.638 184.689 248.074 181.373C248.615 180.977 248.074 180.04 247.533 180.436C242.773 183.968 239.996 189.483 239.996 195.43C239.96 196.115 241.042 196.115 241.042 195.43Z" fill="#919B9B"/>
<path d="M301.447 340.976C302.024 346.167 302.925 351.862 304.368 358.025C306.315 366.351 308.804 373.632 311.292 379.76C310.607 380.373 308.551 381.995 305.522 382.211C303.61 382.355 302.096 381.886 301.23 381.562C299.932 377.056 298.67 372.371 297.516 367.505C295.136 357.485 293.405 347.933 292.143 339.03C295.28 339.679 298.381 340.328 301.447 340.976Z" fill="#191919"/>
<path d="M382.407 337.588C381.938 342.743 381.145 348.474 379.811 354.637C377.935 363.36 375.447 370.929 372.923 377.309C373.283 377.633 375.339 379.58 378.512 379.435C381.253 379.327 383.02 377.705 383.453 377.309C384.282 372.948 385.076 368.55 385.869 364.153C387.6 354.529 389.151 345.049 390.629 335.678C387.889 336.291 385.148 336.94 382.407 337.588Z" fill="#191919"/>
<path d="M317.927 323.207C318.756 328.721 319.73 334.416 320.848 340.256C322.471 348.726 324.31 356.8 326.257 364.441C325.428 364.946 323.769 365.775 321.497 365.919C319.586 366.027 318.071 365.595 317.206 365.27C316.124 360.152 315.078 354.962 314.032 349.771C312.121 340.147 310.354 330.668 308.659 321.296C311.76 321.909 314.826 322.558 317.927 323.207Z" fill="#191919"/>
<path d="M368.811 322.125C367.837 327.568 366.972 333.263 366.214 339.174C365.169 347.32 364.447 355.106 364.015 362.531C364.628 362.927 366.07 363.756 368.126 363.864C370.326 363.936 371.948 363.071 372.561 362.711C372.201 358.458 372.057 353.736 372.273 348.69C372.706 337.48 374.761 327.82 377.033 320.215C374.292 320.828 371.552 321.477 368.811 322.125Z" fill="#191919"/>
<path d="M432.894 201.522C439.205 212.768 434.337 225.203 422.508 256.093C416.81 270.943 406.388 298.228 391.675 337.12C377.214 342.382 353.268 348.87 323.661 346.816C306.459 345.626 292.034 341.914 281.107 338.093C279.484 335.173 273.859 324.252 278.078 313.655C280.422 307.78 285.146 303.563 295.171 298.589C305.053 293.687 322.471 286.802 347.787 285.541C337.869 236.197 354.855 195.755 381.289 186.42C398.635 180.328 424.203 186.059 432.894 201.522Z" fill="white" stroke="#191919" stroke-width="1.77266" stroke-miterlimit="10"/>
<path d="M430.587 205.595C420.128 218.823 417.748 236.593 413.745 252.488C409.454 269.501 404.513 286.478 397.121 302.445C393.046 311.204 388.249 319.639 382.515 327.424C382.119 328.001 383.056 328.541 383.453 327.965C393.514 314.268 400.619 298.733 406.1 282.729C411.654 266.437 415.332 249.641 419.66 233.025C422.112 223.581 425.249 214.138 431.38 206.388C431.777 205.811 431.019 205.054 430.587 205.595Z" fill="#191919"/>
<path d="M281.324 330.271C305.377 339.102 331.595 341.697 356.911 337.768C364.159 336.651 371.336 334.993 378.368 332.83C379.017 332.614 378.765 331.569 378.079 331.785C353.557 339.354 327.231 340.508 302.132 335.173C295.172 333.695 288.284 331.677 281.612 329.226C280.963 328.974 280.675 330.019 281.324 330.271Z" fill="#191919"/>
<path d="M365.998 301.941C372.057 303.923 377.214 307.924 380.676 313.331C381.036 313.907 381.974 313.367 381.613 312.79C378.007 307.167 372.634 302.986 366.287 300.895C365.602 300.679 365.313 301.725 365.998 301.941Z" fill="#191919"/>
<path d="M257.523 348.618C260.408 352.943 263.293 357.304 266.142 361.63C247.678 378.21 245.298 382.932 246.668 384.085C249.409 386.356 269.063 376.263 271.082 375.218C278.403 371.47 283.921 367.829 287.599 365.234C286.301 361.702 284.57 357.737 282.19 353.556C279.052 348.041 275.59 343.391 272.308 339.607C267.368 342.562 262.427 345.59 257.523 348.618Z" fill="#191919"/>
<path d="M365.421 263.662C366.72 266.474 368.09 270.474 368.306 275.304C368.631 282.585 366.251 288.388 364.448 291.74C363.474 293.002 361.743 295.093 359.183 297.363C359.183 297.363 353.377 302.482 344.145 306.41C334.732 310.447 307.361 315.313 270.18 316.25C271.262 320.864 273.21 326.523 276.672 332.614C278.583 335.966 280.675 338.922 282.73 341.481C281.36 343.283 277.465 347.861 269.712 350.744C262.247 353.52 255.395 353.195 252.69 352.979C248.795 349.411 244.792 345.158 241.078 340.075C230.151 325.045 227.591 310.519 227.122 301.184C229.827 299.238 233.793 296.57 238.986 293.723C249.805 287.776 259.722 284.532 267.872 282.117C281.901 278.008 295.316 275.16 326.185 269.934C335.85 268.312 349.229 266.077 365.421 263.662Z" fill="white" stroke="#191919" stroke-width="1.77266" stroke-miterlimit="10"/>
<path opacity="0.19" d="M331.163 269.862C330.117 276.746 327.16 285.685 318 291.236C309.092 296.642 301.627 294.444 283.776 298.769C270.938 301.869 253.953 305.978 249.229 315.097C244.288 324.685 253.628 338.201 269.965 349.303C271.335 349.122 273.066 348.762 274.905 348.041C279.629 346.167 281.937 343.103 282.803 341.769C280.711 339.246 278.547 336.327 276.564 332.975C272.814 326.703 270.794 320.864 269.64 316.142C288.753 315.349 304.801 313.691 316.99 312.105C331.667 310.195 341.837 308.284 351.538 302.806C359.652 298.228 362.898 293.723 364.052 291.993C367.55 286.694 367.838 281.864 367.982 279.161C368.343 272.565 366.179 267.194 364.376 263.806C353.305 265.825 342.234 267.843 331.163 269.862Z" fill="#6C6D6D"/>
<path opacity="0.19" d="M364.737 264.563C364.015 271.267 361.455 281.864 351.249 290.226C344.974 295.381 338.231 297.687 311.761 304.824C300.077 307.96 285.94 311.673 269.856 315.709C290.304 315.493 306.928 313.799 318.865 312.177C331.235 310.483 337.293 309.005 343.568 306.302C349.518 303.743 361.527 298.553 366.432 287.631C371.156 277.034 366.396 267.519 364.737 264.563Z" fill="#6C6D6D"/>
<path opacity="0.22" d="M269.964 316.25C269.82 321.008 270.036 326.451 270.938 332.434C271.804 338.345 273.21 343.644 274.725 348.257C275.951 347.536 277.357 346.563 278.727 345.374C280.386 343.932 281.612 342.562 282.514 341.373C280.422 338.634 278.295 335.462 276.311 331.893C273.102 326.126 271.19 320.792 269.964 316.25Z" fill="#6C6D6D"/>
<path d="M268.305 369.307C271.082 374.75 273.822 380.193 276.599 385.671C258.856 406.505 256.548 412.416 257.883 413.858C260.515 416.741 279.412 404.018 281.359 402.72C288.392 397.999 293.729 393.421 297.263 390.177C296.001 385.743 294.342 380.769 292.034 375.471C289.041 368.55 285.687 362.711 282.549 357.917C277.789 361.738 273.029 365.523 268.305 369.307Z" fill="#191919"/>
<path d="M372.021 262.545C373.283 266.113 374.581 271.087 374.797 277.179C375.122 286.334 372.814 293.615 371.083 297.832C370.145 299.418 368.486 302.049 366.034 304.933C366.034 304.933 360.481 311.385 351.609 316.323C342.557 321.369 316.232 327.532 280.53 328.686C281.576 334.489 283.415 341.589 286.769 349.231C288.608 353.448 290.627 357.16 292.611 360.368C291.313 362.639 287.562 368.37 280.097 372.011C272.921 375.507 266.357 375.11 263.725 374.786C259.974 370.317 256.116 364.946 252.582 358.566C242.051 339.679 239.599 321.405 239.166 309.691C241.763 307.276 245.585 303.887 250.562 300.319C260.984 292.858 270.469 288.749 278.33 285.721C291.781 280.567 304.728 276.999 334.407 270.403C343.567 268.348 356.478 265.573 372.021 262.545Z" fill="white" stroke="#191919" stroke-width="1.77266" stroke-miterlimit="10"/>
<path opacity="0.19" d="M339.095 270.33C338.086 278.981 335.237 290.191 326.438 297.183C317.891 303.996 310.678 301.22 293.549 306.663C281.215 310.556 264.879 315.746 260.335 327.208C255.575 339.247 264.554 356.259 280.241 370.172C281.576 369.956 283.235 369.488 285.002 368.586C289.546 366.244 291.745 362.387 292.575 360.693C290.555 357.521 288.464 353.844 286.552 349.627C282.946 341.734 280.999 334.417 279.917 328.469C298.309 327.46 313.707 325.406 325.464 323.423C339.6 321.044 349.337 318.629 358.677 311.745C366.467 305.978 369.604 300.319 370.686 298.156C374.04 291.488 374.329 285.433 374.473 282.045C374.797 273.755 372.742 267.014 371.011 262.761C360.372 265.248 349.734 267.771 339.095 270.33Z" fill="#6C6D6D"/>
<path opacity="0.19" d="M371.335 263.662C370.65 272.06 368.198 285.397 358.389 295.922C352.33 302.409 345.875 305.293 320.451 314.268C309.199 318.233 295.64 322.882 280.169 327.965C299.823 327.676 315.835 325.586 327.303 323.531C339.203 321.405 345.046 319.566 351.032 316.178C356.766 312.934 368.27 306.446 373.03 292.678C377.538 279.341 372.958 267.411 371.335 263.662Z" fill="#6C6D6D"/>
<path opacity="0.22" d="M280.278 328.65C280.133 334.633 280.35 341.481 281.215 348.978C282.081 356.44 283.379 363.072 284.857 368.839C286.048 367.902 287.382 366.712 288.716 365.198C290.303 363.396 291.493 361.666 292.358 360.188C290.339 356.728 288.283 352.763 286.408 348.258C283.307 341.049 281.432 334.309 280.278 328.65Z" fill="#6C6D6D"/>
<path d="M266.249 206.532C265.564 206.208 264.194 205.595 264.23 204.91C264.302 203.793 268.017 203.036 270.793 203.072C272.669 203.072 276.131 203.469 280.17 206.28C276.383 207.469 270.793 208.551 266.249 206.532Z" fill="white" stroke="#191919" stroke-width="1.77266" stroke-miterlimit="10"/>
<path d="M352.98 159.783C346.128 158.882 339.961 169.154 339.384 170.092C337.293 173.66 337.04 176.039 335.598 182.563C332.1 198.458 330.225 206.532 325.032 211.398C320.343 215.759 314.862 216.805 313.419 217.021C307.253 217.994 301.663 215.687 290.772 211.038C281.576 207.109 280.458 205.667 275.446 205.09C272.885 204.802 265.42 203.973 260.48 208.767C257.306 211.831 255.9 216.733 257.054 217.742C258.532 219.039 264.591 214.462 264.663 214.57C264.699 214.642 262.86 215.507 261.345 217.381C260.588 218.282 259.29 220.229 259.758 220.733C260.588 221.743 265.673 215.615 271.262 216.697C275.085 217.417 275.806 220.878 280.242 221.526C282.838 221.923 285.11 221.13 286.553 220.445C289.077 223.184 293.188 227.077 299.139 230.249C302.673 232.123 315.15 238.575 330.405 234.827C346.597 230.862 354.747 218.21 357.307 214.246C358.75 211.975 369.352 195.034 364.231 176.039C363.33 172.975 360.048 160.72 352.98 159.783Z" fill="white" stroke="#191919" stroke-width="1.77266" stroke-miterlimit="10"/>
<path opacity="0.25" d="M352.258 159.891C349.914 161.117 354.458 169.623 353.881 181.806C353.34 193.52 348.327 202.171 346.092 206.136C343.062 211.434 339.059 218.355 331.09 222.86C320.379 228.916 307.108 228.014 297.66 223.905C294.847 222.68 291.998 218.715 285.795 216.3C283.09 215.255 280.963 214.822 278.474 214.318C272.38 213.128 266.97 212.047 261.958 214.57C259.578 215.795 257.594 217.67 257.738 217.922C257.883 218.174 260.659 216.769 263.112 215.435C260.155 219.364 259.686 220.481 259.902 220.697C260.155 220.914 261.056 220.085 263.364 218.787C265.852 217.417 267.656 216.444 269.855 216.625C270.973 216.733 271.839 217.093 272.344 217.309C274.327 218.174 274.796 219.184 276.779 220.193C278.005 220.806 279.015 221.058 279.556 221.166C280.71 221.418 283.09 221.743 286.228 220.625C288.968 223.509 301.554 236.269 319.982 236.016C329.467 235.872 336.427 232.34 339.168 230.934C354.206 223.112 360.192 209.235 361.707 205.415C366.395 193.592 368.054 176.075 359.471 165.082C357.415 162.414 353.881 159.062 352.258 159.891Z" fill="#6C6D6D"/>
<path d="M257.702 217.742C259.109 215.651 260.948 213.993 263.148 212.804C263.617 212.551 263.184 211.867 262.751 212.119C260.443 213.38 258.496 215.147 257.017 217.345C256.693 217.778 257.414 218.174 257.702 217.742Z" fill="#191919"/>
<path d="M258.135 213.092C259.542 210.894 261.814 209.74 264.085 208.623C264.554 208.407 264.158 207.686 263.689 207.938C261.273 209.092 258.893 210.353 257.414 212.696C257.162 213.128 257.847 213.525 258.135 213.092Z" fill="#191919"/>
<path opacity="0.29" d="M362.608 172.867C362.068 176.508 361.094 181.77 359.363 187.97C355.973 200.225 352.908 211.254 344.902 220.013C334.985 230.826 321.533 233.782 313.816 234.683C319.55 236.016 324.058 235.764 326.907 235.368C348.544 232.34 360.228 209.091 363.402 198.927C363.943 197.125 365.097 193.412 365.241 188.33C365.493 181.554 363.835 176.111 362.608 172.867Z" fill="#6C6D6D"/>
<path opacity="0.26" d="M271.984 216.264C274.039 217.273 276.852 218.391 280.314 219.04C283.055 219.544 285.507 219.652 287.454 219.58C282.514 222.211 279.953 221.887 278.511 221.022C277.609 220.481 276.6 219.4 273.823 217.49C273.066 216.949 272.416 216.516 271.984 216.264Z" fill="#6C6D6D"/>
<path d="M199.065 275.52C199.065 292.821 199.065 310.159 199.065 327.46C199.065 329.55 202.311 329.55 202.311 327.46C202.311 310.159 202.311 292.821 202.311 275.52C202.311 273.466 199.065 273.43 199.065 275.52Z" fill="#161616"/>
<path d="M258.063 274.835C258.063 277.611 258.063 280.386 258.063 283.162C258.063 285.252 261.309 285.252 261.309 283.162C261.309 280.386 261.309 277.611 261.309 274.835C261.309 272.745 258.063 272.745 258.063 274.835Z" fill="#161616"/>
<path d="M154.275 273.394C171.766 256.922 189.256 240.414 206.782 223.941C235.091 224.446 263.364 224.951 291.673 225.455C287.057 241.459 282.441 257.426 277.825 273.43C236.642 273.394 195.459 273.394 154.275 273.394Z" fill="white" stroke="#191919" stroke-width="1.77266" stroke-miterlimit="10"/>
<path d="M155.321 275.268C186.948 275.268 218.539 275.268 250.166 275.268C259.037 275.268 267.872 275.268 276.744 275.268C278.835 275.268 278.835 272.024 276.744 272.024C245.117 272.024 213.526 272.024 181.899 272.024C173.028 272.024 164.193 272.024 155.321 272.024C153.23 272.024 153.23 275.268 155.321 275.268Z" fill="#161616"/>
<path d="M164.589 274.728C164.589 310.591 164.589 346.455 164.589 382.283C164.589 392.339 164.589 402.359 164.589 412.416C164.589 414.506 167.834 414.506 167.834 412.416C167.834 376.552 167.834 340.688 167.834 304.86C167.834 294.804 167.834 284.784 167.834 274.728C167.834 272.637 164.589 272.637 164.589 274.728Z" fill="#161616"/>
<path d="M263.509 274.728C263.509 310.591 263.509 346.455 263.509 382.283C263.509 392.339 263.509 402.359 263.509 412.416C263.509 414.506 266.754 414.506 266.754 412.416C266.754 376.552 266.754 340.688 266.754 304.86C266.754 294.804 266.754 284.784 266.754 274.728C266.754 272.637 263.509 272.637 263.509 274.728Z" fill="#161616"/>
<path d="M166.212 341.661C191.672 341.661 217.132 341.661 242.592 341.661C249.805 341.661 257.017 341.661 264.23 341.661C266.321 341.661 266.321 338.417 264.23 338.417C238.77 338.417 213.309 338.417 187.849 338.417C180.637 338.417 173.424 338.417 166.212 338.417C164.12 338.417 164.12 341.661 166.212 341.661Z" fill="#161616"/>
<path d="M291.241 225.455C287.13 241.495 282.406 257.39 276.996 273.033C276.527 274.367 278.619 274.907 279.088 273.61C284.497 257.931 289.221 242.071 293.333 226.032C293.657 224.698 291.602 224.121 291.241 225.455Z" fill="#161616"/>
<path d="M118.573 415.948C137.722 415.948 156.835 415.948 175.985 415.948C178.076 415.948 178.076 412.704 175.985 412.704C156.835 412.704 137.722 412.704 118.573 412.704C116.481 412.704 116.481 415.948 118.573 415.948Z" fill="#161616"/>
<path d="M184.026 415.227C188.426 415.227 192.862 415.227 197.261 415.227C199.353 415.227 199.353 411.983 197.261 411.983C192.862 411.983 188.426 411.983 184.026 411.983C181.935 411.983 181.935 415.227 184.026 415.227Z" fill="#161616"/>
<path d="M241.438 415.696C258.676 415.696 275.914 415.696 293.188 415.696C295.279 415.696 295.279 412.452 293.188 412.452C275.95 412.452 258.712 412.452 241.438 412.452C239.346 412.452 239.346 415.696 241.438 415.696Z" fill="#161616"/>
<path d="M304.98 414.542C308.046 414.542 311.111 414.542 314.212 414.542C316.304 414.542 316.304 411.298 314.212 411.298C311.147 411.298 308.082 411.298 304.98 411.298C302.889 411.298 302.889 414.542 304.98 414.542Z" fill="#161616"/>
<path d="M101.191 404.522C108.656 404.522 116.121 404.522 123.55 404.522C125.642 404.522 125.642 401.278 123.55 401.278C116.085 401.278 108.62 401.278 101.191 401.278C99.0997 401.278 99.0997 404.522 101.191 404.522Z" fill="#161616"/>
<path d="M258.929 266.582C236.678 266.005 214.392 265.464 192.141 264.888C205.34 252.272 218.503 239.621 231.702 227.005C246.92 227.798 262.174 228.591 277.393 229.384C271.226 241.819 265.096 254.183 258.929 266.582Z" fill="white" stroke="#191919" stroke-width="1.77266" stroke-miterlimit="10"/>
<path d="M230.944 226.753C217.998 239.26 205.051 251.804 192.105 264.311C191.528 244.271 190.915 224.194 190.338 204.154C203.465 195.863 216.591 187.573 229.718 179.283C230.079 195.107 230.512 210.93 230.944 226.753Z" fill="white" stroke="#191919" stroke-width="1.77266" stroke-miterlimit="10"/>
<path d="M191.528 206.064C192.574 223.906 193.259 241.784 193.62 259.662C193.62 260.022 194.16 260.022 194.16 259.662C193.8 241.784 193.115 223.906 192.069 206.064C192.033 205.74 191.492 205.74 191.528 206.064Z" fill="#191919"/>
<path d="M191.816 206.136C203.897 198.278 215.978 190.42 228.059 182.563C228.348 182.383 228.095 181.914 227.771 182.094C215.69 189.952 203.609 197.809 191.528 205.667C191.239 205.883 191.492 206.352 191.816 206.136Z" fill="#191919"/>
<path d="M227.915 182.527C227.879 196.909 228.312 211.326 229.249 225.672C229.285 226.032 229.826 226.032 229.79 225.672C228.889 211.29 228.42 196.909 228.456 182.527C228.456 182.203 227.915 182.203 227.915 182.527Z" fill="#191919"/>
<path d="M193.98 260.419C205.809 248.993 217.673 237.567 229.502 226.177C229.754 225.924 229.357 225.564 229.105 225.78C217.276 237.206 205.412 248.632 193.583 260.022C193.367 260.274 193.728 260.671 193.98 260.419Z" fill="#191919"/>
<path d="M248.759 254.291C250.959 250.795 253.159 247.262 255.286 243.694C255.467 243.406 254.998 243.117 254.817 243.406C252.69 246.974 250.49 250.506 248.29 254.003C248.074 254.291 248.543 254.579 248.759 254.291Z" fill="#191919"/>
<path d="M255.142 243.586C257.991 243.694 260.84 243.694 263.689 243.55C264.049 243.55 264.049 243.009 263.689 243.009C260.84 243.117 257.991 243.117 255.142 243.045C254.781 243.045 254.781 243.586 255.142 243.586Z" fill="#191919"/>
<path d="M263.328 243.405C261.706 246.938 260.047 250.47 258.388 254.002C258.244 254.327 258.712 254.579 258.857 254.291C260.516 250.758 262.174 247.226 263.797 243.694C263.941 243.333 263.473 243.081 263.328 243.405Z" fill="#191919"/>
<path d="M248.579 254.579C251.752 255.048 255.106 254.831 258.316 254.687C258.676 254.687 258.676 254.147 258.316 254.147C255.178 254.291 251.86 254.507 248.723 254.074C248.362 254.002 248.218 254.543 248.579 254.579Z" fill="#191919"/>
<path d="M260.407 243.442C258.965 247.046 257.306 250.542 255.43 253.93C255.25 254.219 255.719 254.507 255.899 254.219C257.775 250.759 259.469 247.226 260.948 243.586C261.056 243.261 260.551 243.117 260.407 243.442Z" fill="#191919"/>
<path d="M208.153 259.769C216.086 249.965 224.309 240.378 232.783 231.006C233 230.754 232.639 230.357 232.387 230.61C223.912 239.945 215.69 249.533 207.756 259.373C207.54 259.661 207.936 260.022 208.153 259.769Z" fill="#191919"/>
<path d="M217.745 260.382C224.85 250.47 232.351 240.882 240.212 231.583C240.429 231.33 240.068 230.934 239.815 231.186C231.918 240.522 224.417 250.145 217.276 260.094C217.06 260.382 217.529 260.67 217.745 260.382Z" fill="#191919"/>
<path d="M228.059 261.86C234.226 251.551 240.97 241.603 248.254 232.052C248.471 231.763 248.002 231.511 247.785 231.763C240.501 241.315 233.757 251.263 227.59 261.572C227.41 261.86 227.879 262.148 228.059 261.86Z" fill="#191919"/>
<path d="M236.714 262.761C242.772 251.479 249.949 240.846 258.171 231.042C258.387 230.79 258.027 230.393 257.774 230.646C249.516 240.486 242.304 251.155 236.209 262.473C236.065 262.797 236.534 263.085 236.714 262.761Z" fill="#191919"/>
<path d="M212.768 253.93C222 252.957 231.232 254.111 240.428 255.336C240.789 255.372 240.753 254.831 240.428 254.795C231.268 253.57 222.036 252.38 212.768 253.39C212.444 253.426 212.444 253.966 212.768 253.93Z" fill="#191919"/>
<path d="M217.421 248.668C226.148 248.343 234.875 248.992 243.458 250.65C243.783 250.722 243.927 250.181 243.602 250.145C234.983 248.487 226.184 247.839 217.421 248.163C217.096 248.127 217.096 248.668 217.421 248.668Z" fill="#191919"/>
<path d="M221.604 243.586C230.006 243.045 238.409 243.802 246.595 245.82C246.92 245.892 247.064 245.388 246.739 245.316C238.517 243.261 230.078 242.504 221.604 243.045C221.243 243.081 221.243 243.622 221.604 243.586Z" fill="#191919"/>
<path d="M225.931 238.503C234.009 238.539 242.015 239.368 249.913 240.99C250.238 241.063 250.382 240.522 250.057 240.486C242.123 238.864 234.045 238.035 225.931 237.999C225.607 237.963 225.607 238.503 225.931 238.503Z" fill="#191919"/>
<path d="M230.223 233.782C237.904 233.926 245.55 234.827 253.015 236.521C253.339 236.593 253.483 236.089 253.159 236.016C245.622 234.322 237.94 233.385 230.223 233.277C229.862 233.241 229.862 233.782 230.223 233.782Z" fill="#191919"/>
<path d="M254.962 239.261C251.428 244.451 247.93 249.641 244.396 254.832C244.215 255.12 244.684 255.408 244.864 255.12C248.398 249.93 251.897 244.739 255.431 239.549C255.647 239.224 255.178 238.972 254.962 239.261Z" fill="#191919"/>
<path d="M195.242 231.403C199.75 229.493 204.618 230.574 209.379 230.502C213.382 230.466 217.204 229.348 220.63 227.33C220.919 227.15 220.666 226.681 220.342 226.861C216.122 229.348 211.651 230.141 206.818 229.925C202.779 229.745 198.776 229.348 194.954 230.97C194.665 231.078 194.918 231.547 195.242 231.403Z" fill="#191919"/>
<path d="M207.396 229.168C215.113 224.807 218.683 215.616 226.725 211.759C227.05 211.615 226.761 211.146 226.437 211.29C218.359 215.183 214.824 224.338 207.107 228.7C206.819 228.88 207.071 229.348 207.396 229.168Z" fill="#191919"/>
<path d="M217.204 203.469C215.87 202.423 216.086 200.729 216.844 199.396C217.204 198.747 217.745 198.062 218.358 197.665C219.476 196.945 220.522 197.521 221.388 198.278C221.64 198.494 222.037 198.134 221.784 197.882C219.981 196.368 218.286 196.512 216.808 198.458C215.618 200.044 215.004 202.423 216.808 203.865C217.096 204.081 217.493 203.685 217.204 203.469Z" fill="#191919"/>
<path d="M328.277 177.12C318.396 188.078 315.727 200.116 314.285 206.929C311.652 219.544 314.429 224.59 314.609 248.559C314.682 258.76 314.249 267.014 313.924 272.204C316.16 273.934 330.008 284.243 348.508 280.855C362.212 278.368 370.47 269.789 373.067 266.87C373.68 263.446 374.545 258.4 375.555 252.272C380.892 219.22 383.525 202.459 380.207 190.457C378.224 183.176 373.319 171.642 359.399 159.711C353.557 160.936 339.529 164.685 328.277 177.12Z" fill="#EC615B"/>
<path opacity="0.19" d="M338.338 170.488C341.764 180.725 343.604 189.483 344.685 195.899C347.534 212.876 351.826 238.323 339.745 262.977C335.886 270.835 331.378 276.602 328.205 280.17C332.388 281.143 340.682 282.477 350.564 279.918C362.32 276.89 369.677 270.078 372.706 266.978C375.05 253.57 376.925 242.072 378.368 233.097C380.856 217.309 381.433 212.516 381.181 205.775C380.892 197.125 380.495 188.042 375.302 178.238C370.326 168.866 363.33 163.243 359.038 160.36C355.54 160.973 350.6 162.27 345.371 165.298C342.486 167.028 340.142 168.866 338.338 170.488Z" fill="#6C6D6D"/>
<path opacity="0.18" d="M379.306 187.681C378.656 187.717 380.027 197.701 377.899 211.47C373.968 236.953 361.346 254.615 356.478 260.887C352.403 266.113 346.02 273.322 336.68 280.422C340.033 280.927 344.505 281.143 349.626 280.17C361.779 277.899 369.497 270.438 372.454 267.23C373.211 262.833 374.437 255.949 375.988 247.442C379.63 227.546 380.351 225.167 380.928 218.967C382.515 202.063 380.063 187.681 379.306 187.681Z" fill="#6C6D6D"/>
<path d="M264.735 214.462C264.05 213.994 262.68 213.129 262.824 212.408C263.112 211.254 267.259 211.074 270.253 211.579C272.272 211.903 275.951 212.949 279.809 216.589C275.482 217.202 269.243 217.382 264.735 214.462Z" fill="white" stroke="#191919" stroke-width="1.77266" stroke-miterlimit="10"/>
<path d="M366.539 179.932C359.291 177.805 350.816 187.573 350.059 188.51C347.174 191.935 346.488 194.386 343.784 201.018C337.22 217.237 333.794 225.419 327.303 229.673C321.497 233.493 315.403 233.638 313.78 233.638C306.964 233.601 301.338 230.213 290.375 223.437C281.143 217.706 280.206 215.976 274.868 214.534C272.164 213.813 264.23 211.651 258.063 215.868C254.132 218.535 251.716 223.509 252.798 224.771C254.168 226.393 261.525 222.572 261.561 222.716C261.597 222.788 259.434 223.401 257.486 225.131C256.513 225.96 254.782 227.762 255.178 228.411C255.899 229.637 262.463 224.014 268.305 226.104C272.272 227.51 272.488 231.295 277.14 232.772C279.881 233.638 282.478 233.169 284.136 232.7C286.372 236.052 290.159 240.846 296.001 245.208C299.499 247.803 311.832 256.742 328.962 255.408C347.138 254.002 358.173 242 361.599 238.287C363.582 236.161 377.971 220.049 375.771 199.071C375.447 195.647 374.04 182.167 366.539 179.932Z" fill="white" stroke="#191919" stroke-width="1.77266" stroke-miterlimit="10"/>
<path opacity="0.25" d="M365.746 179.932C363.005 180.833 366.431 190.601 363.654 203.397C361.022 215.688 354.098 223.978 350.96 227.762C346.741 232.845 341.223 239.477 331.811 242.865C319.189 247.406 305.017 244.198 295.532 238.251C292.719 236.449 290.339 231.799 284.028 228.159C281.287 226.573 279.088 225.78 276.455 224.807C270.108 222.5 264.41 220.409 258.604 222.248C255.827 223.113 253.339 224.771 253.483 225.059C253.628 225.383 256.837 224.338 259.722 223.365C255.863 227.005 255.142 228.123 255.322 228.411C255.539 228.699 256.693 227.943 259.398 227.005C262.355 225.96 264.41 225.275 266.79 225.852C267.98 226.14 268.846 226.681 269.387 227.005C271.37 228.231 271.695 229.42 273.642 230.826C274.832 231.691 275.914 232.124 276.491 232.34C277.681 232.808 280.206 233.565 283.776 232.917C286.228 236.449 297.588 252.092 317.53 254.976C327.808 256.453 335.922 253.93 339.132 252.885C356.73 247.19 365.638 233.565 367.946 229.781C375.086 218.103 379.954 199.864 372.598 186.744C370.867 183.464 367.621 179.319 365.746 179.932Z" fill="#6C6D6D"/>
<path d="M253.448 224.879C255.359 222.896 257.595 221.454 260.191 220.589C260.696 220.409 260.48 219.652 259.975 219.796C257.27 220.734 254.854 222.247 252.871 224.302C252.51 224.698 253.087 225.275 253.448 224.879Z" fill="#191919"/>
<path d="M254.745 220.049C256.657 217.922 259.325 217.093 261.994 216.336C262.499 216.192 262.282 215.399 261.777 215.543C259.001 216.372 256.188 217.273 254.204 219.472C253.808 219.869 254.385 220.409 254.745 220.049Z" fill="#191919"/>
<path opacity="0.29" d="M374.654 195.431C373.427 199.18 371.444 204.586 368.523 210.858C362.717 223.221 357.488 234.359 347.282 242.252C334.696 251.984 319.622 252.813 311.147 252.417C317.098 254.832 322.038 255.336 325.176 255.408C349.049 255.913 365.782 233.313 370.975 223.149C371.877 221.347 373.752 217.598 374.834 212.264C376.24 205.091 375.411 199.072 374.654 195.431Z" fill="#6C6D6D"/>
<path opacity="0.26" d="M269.171 225.744C271.19 227.15 274.039 228.808 277.681 230.105C280.566 231.115 283.199 231.619 285.291 231.872C279.485 233.782 276.78 233.025 275.373 231.872C274.508 231.151 273.606 229.817 270.902 227.33C270.216 226.645 269.603 226.105 269.171 225.744Z" fill="#6C6D6D"/>
<path d="M310.642 107.231C310.246 109.538 309.849 111.844 309.524 114.259C308.118 124.063 307.541 133.327 307.505 141.941C309.488 141.725 311.436 141.509 313.419 141.328C313.203 143.239 312.59 150.231 317.061 157.152C321.281 163.676 327.339 166.055 329.215 166.703C328.998 170.236 328.818 173.732 328.601 177.264C332.496 173.804 337.797 169.731 344.541 166.091C349.698 163.315 354.566 161.405 358.714 160.107C354.062 154.34 352.294 148.898 351.537 145.762C350.239 140.355 350.491 135.706 350.744 131.596C350.996 127.379 351.609 123.883 352.15 121.432C353.845 113.719 349.41 101.5 340.574 97.1023C331.847 92.741 318.829 96.4175 310.642 107.231Z" fill="white" stroke="#161616" stroke-width="1.77266" stroke-miterlimit="10"/>
<path d="M312.59 141.581C313.599 141.436 314.645 141.328 315.655 141.22C316.016 141.184 316.016 140.643 315.655 140.679C314.573 140.788 313.527 140.932 312.445 141.076C312.121 141.076 312.265 141.617 312.59 141.581Z" fill="#161616"/>
<path d="M345.118 112.817C340.755 113.935 339.961 117.719 334.444 125.613C328.854 133.615 325.32 138.625 319.009 141.544C314.934 143.419 312.914 142.914 311.111 145.329C308.01 149.51 310.101 156.394 311.941 159.927C314.068 164 317.314 166.451 319.983 168.469C322.543 170.379 324.887 171.641 326.546 172.398C324.779 169.695 324.671 168.866 324.887 168.613C325.464 168.037 327.916 171.136 330.801 170.74C331.631 170.632 333.109 170.163 336.391 165.009C338.627 161.513 340.142 159.098 341.151 155.637C343.351 148.212 340.25 146.194 341.151 136.426C341.296 134.948 342.305 123.378 346.416 122.621C347.895 122.333 349.41 123.558 350.131 124.495C351.645 126.478 351.465 129.65 349.59 132.389C350.203 131.957 356.081 127.992 356.009 121.54C356.009 120.531 355.973 116.818 353.16 114.403C349.951 111.664 345.479 112.745 345.118 112.817Z" fill="#161616" stroke="#161616" stroke-width="1.77266" stroke-miterlimit="10"/>
<path d="M316.052 129.218C316.888 129.218 317.566 128.007 317.566 126.514C317.566 125.021 316.888 123.811 316.052 123.811C315.215 123.811 314.537 125.021 314.537 126.514C314.537 128.007 315.215 129.218 316.052 129.218Z" fill="#161616"/>
<path d="M304.512 130.479C305.348 130.479 306.026 129.269 306.026 127.776C306.026 126.283 305.348 125.072 304.512 125.072C303.675 125.072 302.997 126.283 302.997 127.776C302.997 129.269 303.675 130.479 304.512 130.479Z" fill="#161616"/>
<path d="M302.24 123.343C303.213 122.225 304.728 122.117 305.81 123.198C306.315 123.703 307.072 122.91 306.567 122.441C305.089 121 302.817 121.036 301.446 122.586C301.05 123.126 301.807 123.883 302.24 123.343Z" fill="#161616"/>
<path d="M314.069 121.468C315.331 120.423 316.99 120.567 318.071 121.756C318.54 122.261 319.298 121.504 318.829 120.999C317.314 119.377 314.97 119.305 313.275 120.711C312.77 121.144 313.528 121.901 314.069 121.468Z" fill="#161616"/>
<path d="M309.416 111.52C309.813 108.925 310.823 104.671 313.6 100.274C314.573 98.7242 316.665 95.4442 319.983 93.2095C326.33 88.9923 336.103 89.3167 343.207 94.507C350.167 99.5893 353.629 108.672 352.114 117.683C337.87 115.665 323.661 113.61 309.416 111.52Z" fill="#5222D0"/>
<path d="M286.12 111.844C308.01 114.656 329.936 117.467 351.826 120.242C353.881 120.495 353.881 117.251 351.826 116.998C329.936 114.187 308.01 111.376 286.12 108.6C284.064 108.312 284.064 111.556 286.12 111.844Z" fill="#161616"/>
<path d="M327.952 90.5784C333.578 91.8039 337.833 96.3454 338.554 101.788C339.203 106.546 337.112 111.376 333.145 114.331C339.384 115.16 345.659 116.025 351.897 116.854C352.222 115.196 352.511 112.673 352.114 109.718C351.176 102.797 347.173 98.3639 345.875 97.0303C344.469 95.5885 339.492 90.7586 332.099 90.3261C330.404 90.254 328.962 90.3982 327.952 90.5784Z" fill="#321693"/>
</svg>
